<mxfile host="app.diagrams.net" agent="Mozilla/5.0 (Windows NT 10.0; Win64; x64) AppleWebKit/537.36 (KHTML, like Gecko) Chrome/133.0.0.0 Safari/537.36" version="26.1.0">
  <diagram name="Page-1" id="fuvHp79-YwKWyplJIFux">
    <mxGraphModel dx="2573" dy="1843" grid="1" gridSize="10" guides="1" tooltips="1" connect="1" arrows="1" fold="1" page="1" pageScale="1" pageWidth="850" pageHeight="1100" math="0" shadow="0">
      <root>
        <mxCell id="0" />
        <mxCell id="1" parent="0" />
        <mxCell id="lsWeMRMcMJrD6qDPierP-2" value="" style="endArrow=none;html=1;rounded=0;exitX=1;exitY=1;exitDx=0;exitDy=0;entryX=0;entryY=0;entryDx=0;entryDy=0;labelBackgroundColor=none;strokeColor=#182E3E;fontColor=default;" parent="1" source="lsWeMRMcMJrD6qDPierP-85" target="lsWeMRMcMJrD6qDPierP-40" edge="1">
          <mxGeometry width="50" height="50" relative="1" as="geometry">
            <mxPoint x="720" y="-110" as="sourcePoint" />
            <mxPoint x="830" y="-70" as="targetPoint" />
          </mxGeometry>
        </mxCell>
        <mxCell id="lsWeMRMcMJrD6qDPierP-3" value="&lt;u&gt;Author&lt;/u&gt;" style="ellipse;whiteSpace=wrap;html=1;labelBackgroundColor=none;fillColor=#F5AB50;strokeColor=#909090;fontColor=#1A1A1A;" parent="1" vertex="1">
          <mxGeometry x="500" y="-260" width="120" height="80" as="geometry" />
        </mxCell>
        <mxCell id="lsWeMRMcMJrD6qDPierP-4" value="Genre" style="ellipse;whiteSpace=wrap;html=1;labelBackgroundColor=none;fillColor=#F5AB50;strokeColor=#909090;fontColor=#1A1A1A;" parent="1" vertex="1">
          <mxGeometry x="590" y="-340" width="120" height="80" as="geometry" />
        </mxCell>
        <mxCell id="lsWeMRMcMJrD6qDPierP-7" value="" style="endArrow=none;html=1;rounded=0;entryX=0.5;entryY=1;entryDx=0;entryDy=0;exitX=0;exitY=0;exitDx=0;exitDy=0;labelBackgroundColor=none;strokeColor=#182E3E;fontColor=default;" parent="1" source="lsWeMRMcMJrD6qDPierP-85" target="lsWeMRMcMJrD6qDPierP-4" edge="1">
          <mxGeometry width="50" height="50" relative="1" as="geometry">
            <mxPoint x="677.5735931288073" y="-178.2842712474619" as="sourcePoint" />
            <mxPoint x="770" y="-220" as="targetPoint" />
          </mxGeometry>
        </mxCell>
        <mxCell id="lsWeMRMcMJrD6qDPierP-8" value="" style="endArrow=none;html=1;rounded=0;entryX=1;entryY=1;entryDx=0;entryDy=0;exitX=0;exitY=0.5;exitDx=0;exitDy=0;labelBackgroundColor=none;strokeColor=#182E3E;fontColor=default;" parent="1" source="lsWeMRMcMJrD6qDPierP-85" target="lsWeMRMcMJrD6qDPierP-3" edge="1">
          <mxGeometry width="50" height="50" relative="1" as="geometry">
            <mxPoint x="660" y="-150" as="sourcePoint" />
            <mxPoint x="770" y="-220" as="targetPoint" />
          </mxGeometry>
        </mxCell>
        <mxCell id="lsWeMRMcMJrD6qDPierP-11" value="Name" style="ellipse;whiteSpace=wrap;html=1;labelBackgroundColor=none;fillColor=#F5AB50;strokeColor=#909090;fontColor=#1A1A1A;" parent="1" vertex="1">
          <mxGeometry x="-170" y="-130" width="120" height="80" as="geometry" />
        </mxCell>
        <mxCell id="lsWeMRMcMJrD6qDPierP-12" value="&lt;u&gt;User ID&lt;/u&gt;" style="ellipse;whiteSpace=wrap;html=1;labelBackgroundColor=none;fillColor=#F5AB50;strokeColor=#909090;fontColor=#1A1A1A;" parent="1" vertex="1">
          <mxGeometry x="-30" y="-120" width="120" height="80" as="geometry" />
        </mxCell>
        <mxCell id="lsWeMRMcMJrD6qDPierP-17" value="" style="endArrow=none;html=1;rounded=0;entryX=0.5;entryY=1;entryDx=0;entryDy=0;exitX=0.5;exitY=0;exitDx=0;exitDy=0;labelBackgroundColor=none;strokeColor=#182E3E;fontColor=default;" parent="1" source="lsWeMRMcMJrD6qDPierP-82" target="lsWeMRMcMJrD6qDPierP-11" edge="1">
          <mxGeometry width="50" height="50" relative="1" as="geometry">
            <mxPoint x="-110" y="30" as="sourcePoint" />
            <mxPoint x="-110" y="-30" as="targetPoint" />
          </mxGeometry>
        </mxCell>
        <mxCell id="lsWeMRMcMJrD6qDPierP-18" value="" style="endArrow=none;html=1;rounded=0;entryX=0;entryY=1;entryDx=0;entryDy=0;exitX=0.75;exitY=0;exitDx=0;exitDy=0;labelBackgroundColor=none;strokeColor=#182E3E;fontColor=default;" parent="1" source="lsWeMRMcMJrD6qDPierP-82" target="lsWeMRMcMJrD6qDPierP-12" edge="1">
          <mxGeometry width="50" height="50" relative="1" as="geometry">
            <mxPoint x="-67.57359312879726" y="31.715728752531504" as="sourcePoint" />
            <mxPoint x="-110" y="-30" as="targetPoint" />
          </mxGeometry>
        </mxCell>
        <mxCell id="lsWeMRMcMJrD6qDPierP-21" value="Checked Out" style="ellipse;whiteSpace=wrap;html=1;labelBackgroundColor=none;fillColor=#F5AB50;strokeColor=#909090;fontColor=#1A1A1A;" parent="1" vertex="1">
          <mxGeometry x="-320" y="-130" width="120" height="80" as="geometry" />
        </mxCell>
        <mxCell id="lsWeMRMcMJrD6qDPierP-27" value="" style="endArrow=none;html=1;rounded=0;entryX=0.5;entryY=1;entryDx=0;entryDy=0;exitX=0;exitY=0;exitDx=0;exitDy=0;labelBackgroundColor=none;strokeColor=#182E3E;fontColor=default;" parent="1" source="lsWeMRMcMJrD6qDPierP-82" target="lsWeMRMcMJrD6qDPierP-21" edge="1">
          <mxGeometry width="50" height="50" relative="1" as="geometry">
            <mxPoint x="-170.00000000000728" y="60.00000000000023" as="sourcePoint" />
            <mxPoint x="-110" y="30" as="targetPoint" />
          </mxGeometry>
        </mxCell>
        <mxCell id="lsWeMRMcMJrD6qDPierP-37" value="Genre" style="ellipse;whiteSpace=wrap;html=1;labelBackgroundColor=none;fillColor=#F5AB50;strokeColor=#909090;fontColor=#1A1A1A;" parent="1" vertex="1">
          <mxGeometry x="730" y="-360" width="120" height="80" as="geometry" />
        </mxCell>
        <mxCell id="lsWeMRMcMJrD6qDPierP-38" value="Publication" style="ellipse;whiteSpace=wrap;html=1;labelBackgroundColor=none;fillColor=#F5AB50;strokeColor=#909090;fontColor=#1A1A1A;" parent="1" vertex="1">
          <mxGeometry x="930" y="-360" width="120" height="80" as="geometry" />
        </mxCell>
        <mxCell id="lsWeMRMcMJrD6qDPierP-40" value="Type" style="ellipse;whiteSpace=wrap;html=1;labelBackgroundColor=none;fillColor=#F5AB50;strokeColor=#909090;fontColor=#1A1A1A;" parent="1" vertex="1">
          <mxGeometry x="840" y="-70" width="120" height="80" as="geometry" />
        </mxCell>
        <mxCell id="lsWeMRMcMJrD6qDPierP-41" value="&lt;u&gt;Media ID&lt;/u&gt;" style="ellipse;whiteSpace=wrap;html=1;labelBackgroundColor=none;fillColor=#F5AB50;strokeColor=#909090;fontColor=#1A1A1A;" parent="1" vertex="1">
          <mxGeometry x="890" y="30" width="120" height="80" as="geometry" />
        </mxCell>
        <mxCell id="lsWeMRMcMJrD6qDPierP-42" value="" style="endArrow=none;html=1;rounded=0;entryX=0;entryY=0.5;entryDx=0;entryDy=0;exitX=1;exitY=0.5;exitDx=0;exitDy=0;labelBackgroundColor=none;strokeColor=#182E3E;fontColor=default;" parent="1" source="lsWeMRMcMJrD6qDPierP-84" target="lsWeMRMcMJrD6qDPierP-41" edge="1">
          <mxGeometry width="50" height="50" relative="1" as="geometry">
            <mxPoint x="830" y="50" as="sourcePoint" />
            <mxPoint x="1120" y="-130" as="targetPoint" />
          </mxGeometry>
        </mxCell>
        <mxCell id="lsWeMRMcMJrD6qDPierP-43" value="" style="endArrow=none;html=1;rounded=0;exitX=1;exitY=0;exitDx=0;exitDy=0;entryX=0;entryY=1;entryDx=0;entryDy=0;labelBackgroundColor=none;strokeColor=#182E3E;fontColor=default;" parent="1" source="lsWeMRMcMJrD6qDPierP-84" target="lsWeMRMcMJrD6qDPierP-40" edge="1">
          <mxGeometry width="50" height="50" relative="1" as="geometry">
            <mxPoint x="812.4264068711927" y="21.715728752538553" as="sourcePoint" />
            <mxPoint x="1120" y="-130" as="targetPoint" />
          </mxGeometry>
        </mxCell>
        <mxCell id="lsWeMRMcMJrD6qDPierP-44" value="" style="endArrow=none;html=1;rounded=0;exitX=0.5;exitY=0;exitDx=0;exitDy=0;entryX=0.5;entryY=1;entryDx=0;entryDy=0;labelBackgroundColor=none;strokeColor=#182E3E;fontColor=default;" parent="1" source="lsWeMRMcMJrD6qDPierP-40" target="lsWeMRMcMJrD6qDPierP-86" edge="1">
          <mxGeometry width="50" height="50" relative="1" as="geometry">
            <mxPoint x="1070" y="-80" as="sourcePoint" />
            <mxPoint x="860" y="-140" as="targetPoint" />
          </mxGeometry>
        </mxCell>
        <mxCell id="lsWeMRMcMJrD6qDPierP-45" value="" style="endArrow=none;html=1;rounded=0;entryX=0;entryY=1;entryDx=0;entryDy=0;exitX=0.75;exitY=0;exitDx=0;exitDy=0;labelBackgroundColor=none;strokeColor=#182E3E;fontColor=default;" parent="1" source="lsWeMRMcMJrD6qDPierP-86" target="lsWeMRMcMJrD6qDPierP-38" edge="1">
          <mxGeometry width="50" height="50" relative="1" as="geometry">
            <mxPoint x="912.4264068711927" y="-218.28427124746213" as="sourcePoint" />
            <mxPoint x="870" y="-90" as="targetPoint" />
          </mxGeometry>
        </mxCell>
        <mxCell id="lsWeMRMcMJrD6qDPierP-46" value="" style="endArrow=none;html=1;rounded=0;entryX=0.5;entryY=1;entryDx=0;entryDy=0;exitX=0.25;exitY=0;exitDx=0;exitDy=0;labelBackgroundColor=none;strokeColor=#182E3E;fontColor=default;" parent="1" source="lsWeMRMcMJrD6qDPierP-86" target="lsWeMRMcMJrD6qDPierP-37" edge="1">
          <mxGeometry width="50" height="50" relative="1" as="geometry">
            <mxPoint x="843" y="-226" as="sourcePoint" />
            <mxPoint x="870" y="-90" as="targetPoint" />
          </mxGeometry>
        </mxCell>
        <mxCell id="lsWeMRMcMJrD6qDPierP-47" value="" style="endArrow=none;html=1;rounded=0;entryX=0.25;entryY=1;entryDx=0;entryDy=0;exitX=1;exitY=0;exitDx=0;exitDy=0;labelBackgroundColor=none;strokeColor=#182E3E;fontColor=default;" parent="1" source="lsWeMRMcMJrD6qDPierP-40" target="lsWeMRMcMJrD6qDPierP-87" edge="1">
          <mxGeometry width="50" height="50" relative="1" as="geometry">
            <mxPoint x="820" y="-40" as="sourcePoint" />
            <mxPoint x="987.5735931288073" y="-131.71572875253787" as="targetPoint" />
          </mxGeometry>
        </mxCell>
        <mxCell id="lsWeMRMcMJrD6qDPierP-48" value="Genre" style="ellipse;whiteSpace=wrap;html=1;labelBackgroundColor=none;fillColor=#F5AB50;strokeColor=#909090;fontColor=#1A1A1A;" parent="1" vertex="1">
          <mxGeometry x="1060" y="-300" width="120" height="80" as="geometry" />
        </mxCell>
        <mxCell id="lsWeMRMcMJrD6qDPierP-49" value="&lt;u&gt;Director&lt;/u&gt;" style="ellipse;whiteSpace=wrap;html=1;labelBackgroundColor=none;fillColor=#F5AB50;strokeColor=#909090;fontColor=#1A1A1A;" parent="1" vertex="1">
          <mxGeometry x="1140" y="-220" width="120" height="80" as="geometry" />
        </mxCell>
        <mxCell id="lsWeMRMcMJrD6qDPierP-50" value="actors" style="ellipse;whiteSpace=wrap;html=1;labelBackgroundColor=none;fillColor=#F5AB50;strokeColor=#909090;fontColor=#1A1A1A;" parent="1" vertex="1">
          <mxGeometry x="1150" y="-130" width="120" height="80" as="geometry" />
        </mxCell>
        <mxCell id="lsWeMRMcMJrD6qDPierP-51" value="" style="endArrow=none;html=1;rounded=0;entryX=0;entryY=1;entryDx=0;entryDy=0;exitX=0.5;exitY=0;exitDx=0;exitDy=0;labelBackgroundColor=none;strokeColor=#182E3E;fontColor=default;" parent="1" source="lsWeMRMcMJrD6qDPierP-87" target="lsWeMRMcMJrD6qDPierP-48" edge="1">
          <mxGeometry width="50" height="50" relative="1" as="geometry">
            <mxPoint x="1030" y="-200" as="sourcePoint" />
            <mxPoint x="870" y="-90" as="targetPoint" />
          </mxGeometry>
        </mxCell>
        <mxCell id="lsWeMRMcMJrD6qDPierP-52" value="" style="endArrow=none;html=1;rounded=0;entryX=0;entryY=0.5;entryDx=0;entryDy=0;exitX=1;exitY=0;exitDx=0;exitDy=0;labelBackgroundColor=none;strokeColor=#182E3E;fontColor=default;" parent="1" source="lsWeMRMcMJrD6qDPierP-87" target="lsWeMRMcMJrD6qDPierP-49" edge="1">
          <mxGeometry width="50" height="50" relative="1" as="geometry">
            <mxPoint x="1072.4264068711927" y="-188.28427124746145" as="sourcePoint" />
            <mxPoint x="870" y="-90" as="targetPoint" />
          </mxGeometry>
        </mxCell>
        <mxCell id="lsWeMRMcMJrD6qDPierP-53" value="" style="endArrow=none;html=1;rounded=0;entryX=0;entryY=0.5;entryDx=0;entryDy=0;exitX=1;exitY=0.5;exitDx=0;exitDy=0;labelBackgroundColor=none;strokeColor=#182E3E;fontColor=default;" parent="1" source="lsWeMRMcMJrD6qDPierP-87" target="lsWeMRMcMJrD6qDPierP-50" edge="1">
          <mxGeometry width="50" height="50" relative="1" as="geometry">
            <mxPoint x="1090" y="-160" as="sourcePoint" />
            <mxPoint x="870" y="-90" as="targetPoint" />
          </mxGeometry>
        </mxCell>
        <mxCell id="lsWeMRMcMJrD6qDPierP-54" value="publisher" style="ellipse;whiteSpace=wrap;html=1;labelBackgroundColor=none;fillColor=#F5AB50;strokeColor=#909090;fontColor=#1A1A1A;" parent="1" vertex="1">
          <mxGeometry x="470" y="-150" width="120" height="80" as="geometry" />
        </mxCell>
        <mxCell id="lsWeMRMcMJrD6qDPierP-55" value="" style="endArrow=none;html=1;rounded=0;entryX=1;entryY=0.5;entryDx=0;entryDy=0;exitX=0;exitY=1;exitDx=0;exitDy=0;labelBackgroundColor=none;strokeColor=#182E3E;fontColor=default;" parent="1" source="lsWeMRMcMJrD6qDPierP-85" target="lsWeMRMcMJrD6qDPierP-54" edge="1">
          <mxGeometry width="50" height="50" relative="1" as="geometry">
            <mxPoint x="677.5735931288073" y="-121.7157287525381" as="sourcePoint" />
            <mxPoint x="870" y="-90" as="targetPoint" />
          </mxGeometry>
        </mxCell>
        <mxCell id="lsWeMRMcMJrD6qDPierP-56" value="date" style="ellipse;whiteSpace=wrap;html=1;labelBackgroundColor=none;fillColor=#F5AB50;strokeColor=#909090;fontColor=#1A1A1A;" parent="1" vertex="1">
          <mxGeometry x="850" y="130" width="120" height="80" as="geometry" />
        </mxCell>
        <mxCell id="lsWeMRMcMJrD6qDPierP-57" value="" style="endArrow=none;html=1;rounded=0;exitX=1;exitY=1;exitDx=0;exitDy=0;entryX=0;entryY=0.5;entryDx=0;entryDy=0;labelBackgroundColor=none;strokeColor=#182E3E;fontColor=default;" parent="1" source="lsWeMRMcMJrD6qDPierP-84" target="lsWeMRMcMJrD6qDPierP-56" edge="1">
          <mxGeometry width="50" height="50" relative="1" as="geometry">
            <mxPoint x="812.4264068711927" y="78.2842712474619" as="sourcePoint" />
            <mxPoint x="870" y="-110" as="targetPoint" />
          </mxGeometry>
        </mxCell>
        <mxCell id="lsWeMRMcMJrD6qDPierP-58" value="Role" style="ellipse;whiteSpace=wrap;html=1;labelBackgroundColor=none;fillColor=#F5AB50;strokeColor=#909090;fontColor=#1A1A1A;" parent="1" vertex="1">
          <mxGeometry x="-380" y="70" width="120" height="80" as="geometry" />
        </mxCell>
        <mxCell id="lsWeMRMcMJrD6qDPierP-59" value="" style="endArrow=none;html=1;rounded=0;exitX=1;exitY=0.5;exitDx=0;exitDy=0;entryX=0;entryY=0.5;entryDx=0;entryDy=0;labelBackgroundColor=none;strokeColor=#182E3E;fontColor=default;" parent="1" source="lsWeMRMcMJrD6qDPierP-58" target="lsWeMRMcMJrD6qDPierP-82" edge="1">
          <mxGeometry width="50" height="50" relative="1" as="geometry">
            <mxPoint x="-130" y="180" as="sourcePoint" />
            <mxPoint x="-170.00000000000728" y="60.00000000000023" as="targetPoint" />
          </mxGeometry>
        </mxCell>
        <mxCell id="lsWeMRMcMJrD6qDPierP-60" value="Senior" style="ellipse;whiteSpace=wrap;html=1;labelBackgroundColor=none;fillColor=#F5AB50;strokeColor=#909090;fontColor=#1A1A1A;" parent="1" vertex="1">
          <mxGeometry x="-760" y="100" width="120" height="80" as="geometry" />
        </mxCell>
        <mxCell id="lsWeMRMcMJrD6qDPierP-61" value="Adult" style="ellipse;whiteSpace=wrap;html=1;labelBackgroundColor=none;fillColor=#F5AB50;strokeColor=#909090;fontColor=#1A1A1A;" parent="1" vertex="1">
          <mxGeometry x="-760" y="10" width="120" height="80" as="geometry" />
        </mxCell>
        <mxCell id="lsWeMRMcMJrD6qDPierP-62" value="Child" style="ellipse;whiteSpace=wrap;html=1;labelBackgroundColor=none;fillColor=#F5AB50;strokeColor=#909090;fontColor=#1A1A1A;" parent="1" vertex="1">
          <mxGeometry x="-720" y="-90" width="120" height="80" as="geometry" />
        </mxCell>
        <mxCell id="lsWeMRMcMJrD6qDPierP-63" value="student" style="ellipse;whiteSpace=wrap;html=1;labelBackgroundColor=none;fillColor=#F5AB50;strokeColor=#909090;fontColor=#1A1A1A;" parent="1" vertex="1">
          <mxGeometry x="-750" y="190" width="120" height="80" as="geometry" />
        </mxCell>
        <mxCell id="lsWeMRMcMJrD6qDPierP-64" value="Professor" style="ellipse;whiteSpace=wrap;html=1;labelBackgroundColor=none;fillColor=#F5AB50;strokeColor=#909090;fontColor=#1A1A1A;" parent="1" vertex="1">
          <mxGeometry x="-670" y="260" width="120" height="80" as="geometry" />
        </mxCell>
        <mxCell id="lsWeMRMcMJrD6qDPierP-68" value="" style="endArrow=none;html=1;rounded=0;entryX=1;entryY=0.5;entryDx=0;entryDy=0;exitX=0;exitY=0.5;exitDx=0;exitDy=0;labelBackgroundColor=none;strokeColor=#182E3E;fontColor=default;" parent="1" source="lsWeMRMcMJrD6qDPierP-58" target="lsWeMRMcMJrD6qDPierP-62" edge="1">
          <mxGeometry width="50" height="50" relative="1" as="geometry">
            <mxPoint x="-130" y="180" as="sourcePoint" />
            <mxPoint x="-80" y="130" as="targetPoint" />
          </mxGeometry>
        </mxCell>
        <mxCell id="lsWeMRMcMJrD6qDPierP-69" value="" style="endArrow=none;html=1;rounded=0;entryX=1;entryY=0.5;entryDx=0;entryDy=0;exitX=0;exitY=0.5;exitDx=0;exitDy=0;labelBackgroundColor=none;strokeColor=#182E3E;fontColor=default;" parent="1" source="lsWeMRMcMJrD6qDPierP-58" target="lsWeMRMcMJrD6qDPierP-61" edge="1">
          <mxGeometry width="50" height="50" relative="1" as="geometry">
            <mxPoint x="-130" y="180" as="sourcePoint" />
            <mxPoint x="-80" y="130" as="targetPoint" />
          </mxGeometry>
        </mxCell>
        <mxCell id="lsWeMRMcMJrD6qDPierP-70" value="" style="endArrow=none;html=1;rounded=0;entryX=1;entryY=0.5;entryDx=0;entryDy=0;exitX=0;exitY=0.5;exitDx=0;exitDy=0;labelBackgroundColor=none;strokeColor=#182E3E;fontColor=default;" parent="1" source="lsWeMRMcMJrD6qDPierP-58" target="lsWeMRMcMJrD6qDPierP-60" edge="1">
          <mxGeometry width="50" height="50" relative="1" as="geometry">
            <mxPoint x="-130" y="180" as="sourcePoint" />
            <mxPoint x="-80" y="130" as="targetPoint" />
          </mxGeometry>
        </mxCell>
        <mxCell id="lsWeMRMcMJrD6qDPierP-71" value="" style="endArrow=none;html=1;rounded=0;entryX=1;entryY=0;entryDx=0;entryDy=0;exitX=0;exitY=0.5;exitDx=0;exitDy=0;labelBackgroundColor=none;strokeColor=#182E3E;fontColor=default;" parent="1" source="lsWeMRMcMJrD6qDPierP-58" target="lsWeMRMcMJrD6qDPierP-63" edge="1">
          <mxGeometry width="50" height="50" relative="1" as="geometry">
            <mxPoint x="-130" y="180" as="sourcePoint" />
            <mxPoint x="-80" y="130" as="targetPoint" />
          </mxGeometry>
        </mxCell>
        <mxCell id="lsWeMRMcMJrD6qDPierP-72" value="" style="endArrow=none;html=1;rounded=0;entryX=0.5;entryY=0;entryDx=0;entryDy=0;exitX=0;exitY=0.5;exitDx=0;exitDy=0;labelBackgroundColor=none;strokeColor=#182E3E;fontColor=default;" parent="1" source="lsWeMRMcMJrD6qDPierP-58" target="lsWeMRMcMJrD6qDPierP-64" edge="1">
          <mxGeometry width="50" height="50" relative="1" as="geometry">
            <mxPoint x="-130" y="180" as="sourcePoint" />
            <mxPoint x="-80" y="130" as="targetPoint" />
          </mxGeometry>
        </mxCell>
        <mxCell id="lsWeMRMcMJrD6qDPierP-75" style="edgeStyle=orthogonalEdgeStyle;rounded=0;orthogonalLoop=1;jettySize=auto;html=1;exitX=0.5;exitY=1;exitDx=0;exitDy=0;labelBackgroundColor=none;strokeColor=#182E3E;fontColor=default;" parent="1" edge="1">
          <mxGeometry relative="1" as="geometry">
            <mxPoint x="-380" y="380" as="sourcePoint" />
            <mxPoint x="-380" y="380" as="targetPoint" />
          </mxGeometry>
        </mxCell>
        <mxCell id="lsWeMRMcMJrD6qDPierP-82" value="User" style="rounded=1;whiteSpace=wrap;html=1;labelBackgroundColor=none;fillColor=#F5AB50;strokeColor=#909090;fontColor=#1A1A1A;" parent="1" vertex="1">
          <mxGeometry x="10" y="60" width="120" height="50" as="geometry" />
        </mxCell>
        <mxCell id="lsWeMRMcMJrD6qDPierP-83" value="&lt;span style=&quot;font-weight: normal;&quot;&gt;staff&lt;/span&gt;" style="rounded=1;whiteSpace=wrap;html=1;labelBackgroundColor=none;fillColor=#F5AB50;strokeColor=#909090;fontColor=#1A1A1A;fontStyle=1" parent="1" vertex="1">
          <mxGeometry x="10" y="280" width="120" height="60" as="geometry" />
        </mxCell>
        <mxCell id="lsWeMRMcMJrD6qDPierP-84" value="media" style="rounded=1;whiteSpace=wrap;html=1;labelBackgroundColor=none;fillColor=#F5AB50;strokeColor=#909090;fontColor=#1A1A1A;" parent="1" vertex="1">
          <mxGeometry x="350" y="50" width="120" height="60" as="geometry" />
        </mxCell>
        <mxCell id="lsWeMRMcMJrD6qDPierP-85" value="book" style="rounded=1;whiteSpace=wrap;html=1;labelBackgroundColor=none;fillColor=#F5AB50;strokeColor=#909090;fontColor=#1A1A1A;" parent="1" vertex="1">
          <mxGeometry x="670" y="-180" width="120" height="60" as="geometry" />
        </mxCell>
        <mxCell id="lsWeMRMcMJrD6qDPierP-86" value="magazine" style="rounded=1;whiteSpace=wrap;html=1;labelBackgroundColor=none;fillColor=#F5AB50;strokeColor=#909090;fontColor=#1A1A1A;" parent="1" vertex="1">
          <mxGeometry x="810" y="-210" width="120" height="60" as="geometry" />
        </mxCell>
        <mxCell id="lsWeMRMcMJrD6qDPierP-87" value="movie" style="rounded=1;whiteSpace=wrap;html=1;labelBackgroundColor=none;fillColor=#F5AB50;strokeColor=#909090;fontColor=#1A1A1A;" parent="1" vertex="1">
          <mxGeometry x="950" y="-170" width="120" height="60" as="geometry" />
        </mxCell>
        <mxCell id="lsWeMRMcMJrD6qDPierP-88" value="&lt;u&gt;name&lt;/u&gt;" style="ellipse;whiteSpace=wrap;html=1;labelBackgroundColor=none;fillColor=#F5AB50;strokeColor=#909090;fontColor=#1A1A1A;" parent="1" vertex="1">
          <mxGeometry x="580" y="-80" width="120" height="80" as="geometry" />
        </mxCell>
        <mxCell id="lsWeMRMcMJrD6qDPierP-89" value="" style="endArrow=none;html=1;rounded=0;exitX=1;exitY=0;exitDx=0;exitDy=0;entryX=0.25;entryY=1;entryDx=0;entryDy=0;labelBackgroundColor=none;strokeColor=#182E3E;fontColor=default;" parent="1" source="lsWeMRMcMJrD6qDPierP-88" target="lsWeMRMcMJrD6qDPierP-85" edge="1">
          <mxGeometry width="50" height="50" relative="1" as="geometry">
            <mxPoint x="880" y="-20" as="sourcePoint" />
            <mxPoint x="930" y="-70" as="targetPoint" />
          </mxGeometry>
        </mxCell>
        <mxCell id="lsWeMRMcMJrD6qDPierP-90" value="&lt;u&gt;name&lt;/u&gt;" style="ellipse;whiteSpace=wrap;html=1;labelBackgroundColor=none;fillColor=#F5AB50;strokeColor=#909090;fontColor=#1A1A1A;" parent="1" vertex="1">
          <mxGeometry x="1070" y="-40" width="120" height="80" as="geometry" />
        </mxCell>
        <mxCell id="lsWeMRMcMJrD6qDPierP-91" value="" style="endArrow=none;html=1;rounded=0;entryX=1;entryY=1;entryDx=0;entryDy=0;exitX=0;exitY=0;exitDx=0;exitDy=0;labelBackgroundColor=none;strokeColor=#182E3E;fontColor=default;" parent="1" source="lsWeMRMcMJrD6qDPierP-90" target="lsWeMRMcMJrD6qDPierP-87" edge="1">
          <mxGeometry width="50" height="50" relative="1" as="geometry">
            <mxPoint x="880" y="-20" as="sourcePoint" />
            <mxPoint x="930" y="-70" as="targetPoint" />
          </mxGeometry>
        </mxCell>
        <mxCell id="lsWeMRMcMJrD6qDPierP-92" value="name" style="ellipse;whiteSpace=wrap;html=1;labelBackgroundColor=none;fillColor=#F5AB50;strokeColor=#909090;fontColor=#1A1A1A;" parent="1" vertex="1">
          <mxGeometry x="910" y="-470" width="120" height="80" as="geometry" />
        </mxCell>
        <mxCell id="lsWeMRMcMJrD6qDPierP-93" value="" style="endArrow=none;html=1;rounded=0;entryX=0.314;entryY=0.973;entryDx=0;entryDy=0;exitX=0.5;exitY=0;exitDx=0;exitDy=0;labelBackgroundColor=none;strokeColor=#182E3E;fontColor=default;entryPerimeter=0;" parent="1" source="lsWeMRMcMJrD6qDPierP-86" edge="1" target="lsWeMRMcMJrD6qDPierP-92">
          <mxGeometry width="50" height="50" relative="1" as="geometry">
            <mxPoint x="880" y="-200" as="sourcePoint" />
            <mxPoint x="890" y="-360" as="targetPoint" />
          </mxGeometry>
        </mxCell>
        <mxCell id="lsWeMRMcMJrD6qDPierP-94" value="reserve" style="rhombus;whiteSpace=wrap;html=1;labelBackgroundColor=none;fillColor=#F5AB50;strokeColor=#909090;fontColor=#1A1A1A;" parent="1" vertex="1">
          <mxGeometry x="200" y="-60" width="80" height="80" as="geometry" />
        </mxCell>
        <mxCell id="lsWeMRMcMJrD6qDPierP-95" value="pay" style="rhombus;whiteSpace=wrap;html=1;labelBackgroundColor=none;fillColor=#F5AB50;strokeColor=#909090;fontColor=#1A1A1A;" parent="1" vertex="1">
          <mxGeometry x="-250" y="-10" width="80" height="80" as="geometry" />
        </mxCell>
        <mxCell id="lsWeMRMcMJrD6qDPierP-96" value="check out" style="rhombus;whiteSpace=wrap;html=1;labelBackgroundColor=none;fillColor=#F5AB50;strokeColor=#909090;fontColor=#1A1A1A;" parent="1" vertex="1">
          <mxGeometry x="200" y="150" width="80" height="80" as="geometry" />
        </mxCell>
        <mxCell id="lsWeMRMcMJrD6qDPierP-98" value="" style="endArrow=none;html=1;rounded=0;strokeColor=#182E3E;fontColor=#1A1A1A;exitX=1;exitY=0;exitDx=0;exitDy=0;entryX=0;entryY=0.5;entryDx=0;entryDy=0;" parent="1" source="lsWeMRMcMJrD6qDPierP-82" target="lsWeMRMcMJrD6qDPierP-94" edge="1">
          <mxGeometry width="50" height="50" relative="1" as="geometry">
            <mxPoint x="330" y="120" as="sourcePoint" />
            <mxPoint x="380" y="70" as="targetPoint" />
          </mxGeometry>
        </mxCell>
        <mxCell id="lsWeMRMcMJrD6qDPierP-99" value="" style="endArrow=none;html=1;rounded=0;strokeColor=#182E3E;fontColor=#1A1A1A;entryX=1;entryY=0.5;entryDx=0;entryDy=0;exitX=0;exitY=0;exitDx=0;exitDy=0;" parent="1" source="lsWeMRMcMJrD6qDPierP-84" target="lsWeMRMcMJrD6qDPierP-94" edge="1">
          <mxGeometry width="50" height="50" relative="1" as="geometry">
            <mxPoint x="280" y="50" as="sourcePoint" />
            <mxPoint x="380" y="70" as="targetPoint" />
          </mxGeometry>
        </mxCell>
        <mxCell id="lsWeMRMcMJrD6qDPierP-100" value="" style="endArrow=none;html=1;rounded=0;strokeColor=#182E3E;fontColor=#1A1A1A;exitX=1;exitY=0.5;exitDx=0;exitDy=0;entryX=0;entryY=1;entryDx=0;entryDy=0;" parent="1" source="lsWeMRMcMJrD6qDPierP-96" target="lsWeMRMcMJrD6qDPierP-84" edge="1">
          <mxGeometry width="50" height="50" relative="1" as="geometry">
            <mxPoint x="330" y="120" as="sourcePoint" />
            <mxPoint x="280" y="100" as="targetPoint" />
          </mxGeometry>
        </mxCell>
        <mxCell id="lsWeMRMcMJrD6qDPierP-101" value="" style="endArrow=none;html=1;rounded=0;strokeColor=#182E3E;fontColor=#1A1A1A;exitX=0;exitY=0.5;exitDx=0;exitDy=0;entryX=1;entryY=1;entryDx=0;entryDy=0;" parent="1" source="lsWeMRMcMJrD6qDPierP-96" target="lsWeMRMcMJrD6qDPierP-82" edge="1">
          <mxGeometry width="50" height="50" relative="1" as="geometry">
            <mxPoint x="330" y="120" as="sourcePoint" />
            <mxPoint x="380" y="70" as="targetPoint" />
          </mxGeometry>
        </mxCell>
        <mxCell id="fhu01G3mkJdW1RdEYnN0-5" value="admin" style="rounded=1;whiteSpace=wrap;html=1;labelBackgroundColor=none;fillColor=#F5AB50;strokeColor=#909090;fontColor=#1A1A1A;" vertex="1" parent="1">
          <mxGeometry x="10" y="490" width="120" height="60" as="geometry" />
        </mxCell>
        <mxCell id="fhu01G3mkJdW1RdEYnN0-6" value="is" style="rhombus;whiteSpace=wrap;html=1;labelBackgroundColor=none;fillColor=#F5AB50;strokeColor=#909090;fontColor=#1A1A1A;" vertex="1" parent="1">
          <mxGeometry x="30" y="370" width="80" height="80" as="geometry" />
        </mxCell>
        <mxCell id="fhu01G3mkJdW1RdEYnN0-7" value="" style="endArrow=none;html=1;rounded=0;exitX=0.5;exitY=0;exitDx=0;exitDy=0;entryX=0.5;entryY=1;entryDx=0;entryDy=0;" edge="1" parent="1" source="fhu01G3mkJdW1RdEYnN0-6" target="lsWeMRMcMJrD6qDPierP-83">
          <mxGeometry width="50" height="50" relative="1" as="geometry">
            <mxPoint x="230" y="380" as="sourcePoint" />
            <mxPoint x="280" y="330" as="targetPoint" />
          </mxGeometry>
        </mxCell>
        <mxCell id="fhu01G3mkJdW1RdEYnN0-8" value="" style="endArrow=none;html=1;rounded=0;exitX=0.5;exitY=0;exitDx=0;exitDy=0;entryX=0.5;entryY=1;entryDx=0;entryDy=0;" edge="1" parent="1" source="fhu01G3mkJdW1RdEYnN0-5" target="fhu01G3mkJdW1RdEYnN0-6">
          <mxGeometry width="50" height="50" relative="1" as="geometry">
            <mxPoint x="230" y="380" as="sourcePoint" />
            <mxPoint x="280" y="330" as="targetPoint" />
          </mxGeometry>
        </mxCell>
        <mxCell id="fhu01G3mkJdW1RdEYnN0-10" value="&lt;u&gt;Issue number&lt;/u&gt;" style="ellipse;whiteSpace=wrap;html=1;labelBackgroundColor=none;fillColor=#F5AB50;strokeColor=#909090;fontColor=#1A1A1A;" vertex="1" parent="1">
          <mxGeometry x="770" y="-480" width="120" height="80" as="geometry" />
        </mxCell>
        <mxCell id="fhu01G3mkJdW1RdEYnN0-11" value="" style="endArrow=none;html=1;rounded=0;entryX=1;entryY=1;entryDx=0;entryDy=0;exitX=0.5;exitY=0;exitDx=0;exitDy=0;" edge="1" parent="1" source="lsWeMRMcMJrD6qDPierP-86" target="fhu01G3mkJdW1RdEYnN0-10">
          <mxGeometry width="50" height="50" relative="1" as="geometry">
            <mxPoint x="800" y="-170" as="sourcePoint" />
            <mxPoint x="850" y="-220" as="targetPoint" />
          </mxGeometry>
        </mxCell>
        <mxCell id="fhu01G3mkJdW1RdEYnN0-15" value="Fees" style="ellipse;whiteSpace=wrap;html=1;labelBackgroundColor=none;fillColor=#F5AB50;strokeColor=#909090;fontColor=#1A1A1A;" vertex="1" parent="1">
          <mxGeometry x="-440" y="-80" width="120" height="80" as="geometry" />
        </mxCell>
        <mxCell id="fhu01G3mkJdW1RdEYnN0-18" value="Past due" style="ellipse;whiteSpace=wrap;html=1;labelBackgroundColor=none;fillColor=#F5AB50;strokeColor=#909090;fontColor=#1A1A1A;" vertex="1" parent="1">
          <mxGeometry x="-425" y="-240" width="120" height="80" as="geometry" />
        </mxCell>
        <mxCell id="fhu01G3mkJdW1RdEYnN0-19" value="" style="endArrow=none;html=1;rounded=0;exitX=0;exitY=0;exitDx=0;exitDy=0;entryX=1;entryY=1;entryDx=0;entryDy=0;" edge="1" parent="1" source="lsWeMRMcMJrD6qDPierP-21" target="fhu01G3mkJdW1RdEYnN0-18">
          <mxGeometry width="50" height="50" relative="1" as="geometry">
            <mxPoint x="30" as="sourcePoint" />
            <mxPoint x="80" y="-50" as="targetPoint" />
          </mxGeometry>
        </mxCell>
        <mxCell id="fhu01G3mkJdW1RdEYnN0-20" value="" style="endArrow=none;html=1;rounded=0;exitX=0.5;exitY=0;exitDx=0;exitDy=0;entryX=0.5;entryY=1;entryDx=0;entryDy=0;" edge="1" parent="1" source="fhu01G3mkJdW1RdEYnN0-15" target="fhu01G3mkJdW1RdEYnN0-18">
          <mxGeometry width="50" height="50" relative="1" as="geometry">
            <mxPoint x="30" as="sourcePoint" />
            <mxPoint x="80" y="-50" as="targetPoint" />
          </mxGeometry>
        </mxCell>
        <mxCell id="fhu01G3mkJdW1RdEYnN0-24" value="" style="endArrow=none;html=1;rounded=0;exitX=1;exitY=1;exitDx=0;exitDy=0;entryX=0;entryY=0.5;entryDx=0;entryDy=0;" edge="1" parent="1" source="fhu01G3mkJdW1RdEYnN0-15" target="lsWeMRMcMJrD6qDPierP-95">
          <mxGeometry width="50" height="50" relative="1" as="geometry">
            <mxPoint x="30" y="-80" as="sourcePoint" />
            <mxPoint x="80" y="-130" as="targetPoint" />
          </mxGeometry>
        </mxCell>
        <mxCell id="fhu01G3mkJdW1RdEYnN0-25" value="" style="endArrow=none;html=1;rounded=0;entryX=1;entryY=0.5;entryDx=0;entryDy=0;exitX=0;exitY=0.25;exitDx=0;exitDy=0;" edge="1" parent="1" source="lsWeMRMcMJrD6qDPierP-82" target="lsWeMRMcMJrD6qDPierP-95">
          <mxGeometry width="50" height="50" relative="1" as="geometry">
            <mxPoint x="30" y="-80" as="sourcePoint" />
            <mxPoint x="80" y="-130" as="targetPoint" />
          </mxGeometry>
        </mxCell>
        <mxCell id="fhu01G3mkJdW1RdEYnN0-27" value="is" style="rhombus;whiteSpace=wrap;html=1;labelBackgroundColor=none;fillColor=#F5AB50;strokeColor=#909090;fontColor=#1A1A1A;" vertex="1" parent="1">
          <mxGeometry x="30" y="160" width="80" height="80" as="geometry" />
        </mxCell>
        <mxCell id="fhu01G3mkJdW1RdEYnN0-28" value="" style="endArrow=none;html=1;rounded=0;exitX=0.5;exitY=0;exitDx=0;exitDy=0;entryX=0.5;entryY=1;entryDx=0;entryDy=0;" edge="1" parent="1" source="lsWeMRMcMJrD6qDPierP-83" target="fhu01G3mkJdW1RdEYnN0-27">
          <mxGeometry width="50" height="50" relative="1" as="geometry">
            <mxPoint x="330" y="190" as="sourcePoint" />
            <mxPoint x="380" y="140" as="targetPoint" />
          </mxGeometry>
        </mxCell>
        <mxCell id="fhu01G3mkJdW1RdEYnN0-30" value="" style="endArrow=none;html=1;rounded=0;entryX=0.5;entryY=1;entryDx=0;entryDy=0;exitX=0.5;exitY=0;exitDx=0;exitDy=0;" edge="1" parent="1" source="fhu01G3mkJdW1RdEYnN0-27" target="lsWeMRMcMJrD6qDPierP-82">
          <mxGeometry width="50" height="50" relative="1" as="geometry">
            <mxPoint x="70" y="150" as="sourcePoint" />
            <mxPoint x="80" y="230" as="targetPoint" />
          </mxGeometry>
        </mxCell>
        <mxCell id="fhu01G3mkJdW1RdEYnN0-50" value="" style="endArrow=none;html=1;rounded=0;entryX=0.5;entryY=1;entryDx=0;entryDy=0;exitX=1;exitY=0.5;exitDx=0;exitDy=0;" edge="1" parent="1" source="lsWeMRMcMJrD6qDPierP-83" target="lsWeMRMcMJrD6qDPierP-96">
          <mxGeometry width="50" height="50" relative="1" as="geometry">
            <mxPoint x="140" y="310" as="sourcePoint" />
            <mxPoint x="190" y="260" as="targetPoint" />
          </mxGeometry>
        </mxCell>
      </root>
    </mxGraphModel>
  </diagram>
</mxfile>
